<?xml version="1.0" encoding="UTF-8"?>
<svg version="1.1" xmlns="http://www.w3.org/2000/svg" width="500" height="500">
<path d="M0 0 C165 0 330 0 500 0 C500 165 500 330 500 500 C335 500 170 500 0 500 C0 335 0 170 0 0 Z " fill="#FEFEFF" transform="translate(0,0)"/>
<path d="M0 0 C0 15.51 0 31.02 0 47 C-1.65 47.33 -3.3 47.66 -5 48 C-6.33333333 47 -7.66666667 46 -9 45 C-12.26667311 45.08166683 -13.74244372 45.81022169 -16.375 47.75 C-18.24589456 49.84991242 -18.24589456 49.84991242 -17.89746094 52.30712891 C-16.16473764 57.50624152 -11.62236846 61.04178569 -7.79980469 64.83154297 C-6.25108247 66.37392196 -4.73095231 67.94110228 -3.2109375 69.51171875 C-2.23079014 70.49641032 -1.24907033 71.47953972 -0.265625 72.4609375 C0.62350586 73.35603027 1.51263672 74.25112305 2.42871094 75.17333984 C4.81384033 77.22425107 4.81384033 77.22425107 7.49560547 77.07958984 C12.49719662 74.92351302 16.04692249 70.61718719 19.83154297 66.79980469 C21.37392196 65.25108247 22.94110228 63.73095231 24.51171875 62.2109375 C25.49641032 61.23079014 26.47953972 60.24907033 27.4609375 59.265625 C28.35603027 58.37649414 29.25112305 57.48736328 30.17333984 56.57128906 C32.27990646 54.16074766 32.27990646 54.16074766 31.89306641 51.31933594 C30.74863849 48.3472022 29.58517379 46.86706996 27 45 C23.47675428 45.17186564 21.97408276 46.01727816 19 48 C17.35 47.67 15.7 47.34 14 47 C14 31.49 14 15.98 14 0 C18 -2 18 -2 20.91796875 -1.34765625 C34.86881326 4.13600903 45.67485965 12.81731226 52.0390625 26.65625 C54.38649591 32.38169735 55.35749721 37.89622354 56 44 C56.76183594 44.268125 57.52367187 44.53625 58.30859375 44.8125 C68.45917851 48.6649067 76.42275504 53.89191737 81 64 C83.46664704 73.83302834 83.0250666 84.11581363 78 93 C73.31754618 100.31431579 66.83718864 104.24974799 58.5944519 106.384552 C50.55799761 107.76056699 42.35304536 107.44977531 34.22265625 107.43359375 C32.20446091 107.43816331 30.18626713 107.44347117 28.16807556 107.44947815 C23.95288747 107.45837674 19.73788918 107.45602311 15.52270508 107.44604492 C10.14874692 107.43455667 4.77544604 107.45478152 -0.59842587 107.48396206 C-4.76200957 107.5023983 -8.92543788 107.50201689 -13.0890522 107.49632454 C-15.06918828 107.49617225 -17.04933552 107.50213948 -19.0294323 107.51461601 C-33.88454655 107.59505157 -46.76818809 106.94152651 -58 96 C-60.2979221 93.48102499 -62.19572184 90.89013554 -64 88 C-64.62068359 87.08927734 -64.62068359 87.08927734 -65.25390625 86.16015625 C-69.88153597 78.01746285 -69.47384855 65.95056501 -67.26953125 57.05078125 C-66.33929042 54.87515679 -65.28155491 52.98556698 -64 51 C-63.649375 50.32066406 -63.29875 49.64132813 -62.9375 48.94140625 C-59.55267312 42.72413743 -54.28470834 37.3933479 -47.44140625 35.16796875 C-46.59449219 34.92691406 -45.74757812 34.68585938 -44.875 34.4375 C-41.27571455 33.1563984 -40.18407561 32.29552013 -38.12890625 28.99609375 C-37.27486303 27.16769175 -36.4214257 25.33871747 -35.60400391 23.49365234 C-30.55890149 12.230644 -21.55476071 4.89208961 -10.44140625 -0.1640625 C-4.6799579 -2.33997895 -4.6799579 -2.33997895 0 0 Z " fill="#775BFF" transform="translate(243,149)"/>
<path d="M0 0 C3.91668882 2.72465309 6.01984409 5.60211291 7.875 10 C8.5254104 14.12774027 8.48611715 18.1430814 8.375 22.3125 C8.37886719 23.93768555 8.37886719 23.93768555 8.3828125 25.59570312 C8.28504837 33.46082722 8.28504837 33.46082722 6.50195312 35.80541992 C4.1742228 37.51454124 2.69209487 37.42256423 -0.125 37 C-1.9375 35.8125 -1.9375 35.8125 -3.125 34 C-3.3125 31.3125 -3.3125 31.3125 -3.125 29 C-5.435 29 -7.745 29 -10.125 29 C-10.455 31.31 -10.785 33.62 -11.125 36 C-14.4375 36.6875 -14.4375 36.6875 -18.125 37 C-19.82836914 35.8347168 -19.82836914 35.8347168 -21.125 34 C-21.76746385 30.30321256 -21.58814356 26.5587906 -21.5625 22.8125 C-21.58248047 21.79607422 -21.60246094 20.77964844 -21.62304688 19.73242188 C-21.6189621 13.40510582 -21.00487321 8.17770121 -17.125 3 C-11.91096338 -1.57267263 -6.45840514 -2.06668965 0 0 Z " fill="#7B60FF" transform="translate(160.125,274)"/>
<path d="M0 0 C4.05009767 2.60968637 5.8011237 5.99658453 7.3125 10.5 C7.8325842 14.26878653 7.82871383 17.951423 7.75 21.75 C7.75708984 22.7296875 7.76417969 23.709375 7.77148438 24.71875 C7.70144684 32.60605345 7.70144684 32.60605345 4.3125 36.5 C0.8475 36.005 0.8475 36.005 -2.6875 35.5 C-3.0175 33.19 -3.3475 30.88 -3.6875 28.5 C-5.9975 28.5 -8.3075 28.5 -10.6875 28.5 C-10.625625 29.263125 -10.56375 30.02625 -10.5 30.8125 C-10.6875 33.5 -10.6875 33.5 -11.75 35.375 C-14.85752199 37.17936761 -17.31549333 36.31177938 -20.6875 35.5 C-22.72195127 31.43109746 -21.91655346 26.22208575 -21.9375 21.75 C-21.958125 20.66460937 -21.97875 19.57921875 -22 18.4609375 C-22.02790675 12.75400768 -22.04295072 8.36540354 -18.6875 3.5 C-12.89938039 -1.85401064 -7.42308163 -3.01955863 0 0 Z " fill="#7B60FF" transform="translate(300.6875,274.5)"/>
<path d="M0 0 C0.88365234 0.00064453 1.76730469 0.00128906 2.67773438 0.00195312 C3.59748047 0.01806641 4.51722656 0.03417969 5.46484375 0.05078125 C6.38845703 0.04755859 7.31207031 0.04433594 8.26367188 0.04101562 C15.13529202 0.09622952 15.13529202 0.09622952 17.40234375 2.36328125 C17.71484375 5.36328125 17.71484375 5.36328125 17.40234375 8.36328125 C13.87555276 10.71447524 12.3735489 10.57771577 8.21484375 10.48828125 C7.12816406 10.47023438 6.04148437 10.4521875 4.921875 10.43359375 C3.67470703 10.39878906 3.67470703 10.39878906 2.40234375 10.36328125 C2.40234375 11.35328125 2.40234375 12.34328125 2.40234375 13.36328125 C3.55863281 13.32847656 3.55863281 13.32847656 4.73828125 13.29296875 C5.74117188 13.27492188 6.7440625 13.256875 7.77734375 13.23828125 C8.77507812 13.21507812 9.7728125 13.191875 10.80078125 13.16796875 C13.40234375 13.36328125 13.40234375 13.36328125 15.40234375 15.36328125 C15.76163054 18.16571818 15.89125592 19.70620821 14.17578125 22.01171875 C11.88056609 23.76093559 10.56503623 23.67470266 7.71484375 23.55078125 C6.90660156 23.52371094 6.09835937 23.49664062 5.265625 23.46875 C4.65074219 23.43394531 4.03585937 23.39914062 3.40234375 23.36328125 C3.40234375 24.68328125 3.40234375 26.00328125 3.40234375 27.36328125 C4.24539063 27.34007812 5.0884375 27.316875 5.95703125 27.29296875 C7.60058594 27.26589844 7.60058594 27.26589844 9.27734375 27.23828125 C10.91316406 27.20347656 10.91316406 27.20347656 12.58203125 27.16796875 C15.40234375 27.36328125 15.40234375 27.36328125 17.40234375 29.36328125 C17.65234375 32.36328125 17.65234375 32.36328125 17.40234375 35.36328125 C14.52638819 38.23923681 12.1968582 37.65394348 8.26367188 37.68554688 C7.34005859 37.68232422 6.41644531 37.67910156 5.46484375 37.67578125 C4.08522461 37.69995117 4.08522461 37.69995117 2.67773438 37.72460938 C1.35225586 37.72557617 1.35225586 37.72557617 0 37.7265625 C-0.80945068 37.72954346 -1.61890137 37.73252441 -2.45288086 37.7355957 C-4.59765625 37.36328125 -4.59765625 37.36328125 -6.36010742 36.27612305 C-8.24945331 33.35581824 -7.98686256 30.84260129 -7.99609375 27.39453125 C-7.99896393 26.71781372 -8.00183411 26.04109619 -8.00479126 25.34387207 C-8.00683022 23.91494916 -8.00131194 22.48599823 -7.98876953 21.05712891 C-7.97271136 18.870784 -7.98862159 16.68628746 -8.0078125 14.5 C-8.00583004 13.11067301 -8.00198629 11.72134716 -7.99609375 10.33203125 C-7.99270996 9.06810547 -7.98932617 7.80417969 -7.98583984 6.50195312 C-7.59765625 3.36328125 -7.59765625 3.36328125 -6.36010742 1.45043945 C-4.10360658 0.05852946 -2.64473201 -0.00973973 0 0 Z " fill="#7A5EFF" transform="translate(356.59765625,273.63671875)"/>
<path d="M0 0 C0.78503906 -0.01224609 1.57007813 -0.02449219 2.37890625 -0.03710938 C4.42063726 -0.04236254 6.46192251 0.0652982 8.5 0.1875 C10.5 2.1875 10.5 2.1875 10.8125 4.625 C10.5 7.1875 10.5 7.1875 9.3984375 8.8359375 C6.56756589 10.85133169 4.23525347 10.47666594 0.8125 10.375 C-0.95673828 10.33439453 -0.95673828 10.33439453 -2.76171875 10.29296875 C-3.66535156 10.25816406 -4.56898438 10.22335937 -5.5 10.1875 C-5.5 11.1775 -5.5 12.1675 -5.5 13.1875 C-4.30375 13.125625 -3.1075 13.06375 -1.875 13 C3.15666844 13.00890561 6.55698384 14.50355266 10.375 17.8125 C12.14726001 21.5539378 12.03039824 25.12595731 11.5 29.1875 C9.73692173 33.4560053 7.61946503 35.2083778 3.5 37.1875 C0.69473967 37.47536374 -1.83122764 37.60829955 -4.625 37.5625 C-5.69814453 37.57990234 -5.69814453 37.57990234 -6.79296875 37.59765625 C-9.80151519 37.5807859 -11.95188568 37.56704742 -14.46875 35.82421875 C-15.94797782 33.47650489 -15.91722584 31.89946797 -15.5 29.1875 C-11.7632157 26.69631047 -9.75548181 26.9809774 -5.3125 27.0625 C-4.04019531 27.08054687 -2.76789063 27.09859375 -1.45703125 27.1171875 C-0.48121094 27.14039063 0.49460937 27.16359375 1.5 27.1875 C1.5 25.8675 1.5 24.5475 1.5 23.1875 C0.84773438 23.24550781 0.19546875 23.30351562 -0.4765625 23.36328125 C-8.50590855 23.77777551 -8.50590855 23.77777551 -12.0625 20.8125 C-15.62191441 16.97928448 -15.89215852 14.59707028 -15.859375 9.515625 C-15.25455722 5.59745764 -13.33123243 3.88391184 -10.5 1.1875 C-7.21646451 -0.45426774 -3.60480362 0.00295961 0 0 Z " fill="#795EFF" transform="translate(262.5,273.8125)"/>
<path d="M0 0 C0.78052734 -0.00773437 1.56105469 -0.01546875 2.36523438 -0.0234375 C8.18414502 -0.00335498 8.18414502 -0.00335498 10.4375 2.25 C10.78751162 4.98009061 10.8874323 6.57669706 9.3359375 8.8984375 C6.50506589 10.91383169 4.17275347 10.53916594 0.75 10.4375 C-1.01923828 10.39689453 -1.01923828 10.39689453 -2.82421875 10.35546875 C-3.72785156 10.32066406 -4.63148438 10.28585937 -5.5625 10.25 C-5.5625 11.24 -5.5625 12.23 -5.5625 13.25 C-4.36625 13.188125 -3.17 13.12625 -1.9375 13.0625 C3.46942142 13.08160573 6.80951978 14.83073519 10.875 18.375 C13.12849453 22.52142993 12.7025145 25.78190391 11.4375 30.25 C9.00557167 34.33216542 6.90992088 35.85352195 2.4375 37.25 C-1.26171875 37.515625 -1.26171875 37.515625 -5.25 37.5 C-6.26416992 37.51160156 -6.26416992 37.51160156 -7.29882812 37.5234375 C-12.3090035 37.5034965 -12.3090035 37.5034965 -14.5625 35.25 C-14.8125 32.25 -14.8125 32.25 -14.5625 29.25 C-12.5625 27.25 -12.5625 27.25 -9.3046875 27.0546875 C-8.02851563 27.07789063 -6.75234375 27.10109375 -5.4375 27.125 C-3.51550781 27.15207031 -3.51550781 27.15207031 -1.5546875 27.1796875 C-0.07355469 27.21449219 -0.07355469 27.21449219 1.4375 27.25 C1.4375 25.93 1.4375 24.61 1.4375 23.25 C0.78523438 23.30800781 0.13296875 23.36601562 -0.5390625 23.42578125 C-8.57028502 23.84037238 -8.57028502 23.84037238 -12.125 20.9375 C-14.98358831 17.78572314 -15.47902834 16.13479957 -15.875 11.9375 C-15.50477165 7.56880542 -14.30469139 5.61897799 -11.5625 2.25 C-7.69957629 -0.32528248 -4.47303122 -0.04454471 0 0 Z " fill="#795EFF" transform="translate(187.5625,273.75)"/>
<path d="M0 0 C3.21189653 0.74695268 3.50000822 1.32100024 5.25 4 C7.89343864 8.66784418 9.84317728 13.5969023 11.6875 18.625 C14.4293316 14.51225259 16.24016682 10.06564465 18.25 5.55859375 C19.6875 2.625 19.6875 2.625 21.6875 0.625 C24.98464793 0.95471479 26.3101839 1.2476839 28.6875 3.625 C28.3533954 8.46823589 27.1468677 12.48109262 25.25390625 16.92578125 C24.76986328 18.06724609 24.28582031 19.20871094 23.78710938 20.38476562 C23.27986328 21.55716797 22.77261719 22.72957031 22.25 23.9375 C21.74662109 25.12923828 21.24324219 26.32097656 20.72460938 27.54882812 C16.96030971 36.35219029 16.96030971 36.35219029 14.6875 38.625 C11.26928711 38.6394043 11.26928711 38.6394043 7.6875 37.625 C5.79125977 34.94458008 5.79125977 34.94458008 4.37890625 31.39453125 C4.12245834 30.76649094 3.86601044 30.13845062 3.60179138 29.49137878 C3.06540402 28.16254089 2.54255585 26.82816814 2.0324707 25.48901367 C1.25488384 23.45030464 0.43757402 21.43152038 -0.38867188 19.41210938 C-4.87560552 8.1681485 -4.87560552 8.1681485 -4.3125 2.625 C-2.3125 0.625 -2.3125 0.625 0 0 Z " fill="#795EFF" transform="translate(316.3125,272.375)"/>
<path d="M0 0 C0.93199219 -0.00257813 1.86398438 -0.00515625 2.82421875 -0.0078125 C3.80003906 -0.00007813 4.77585937 0.00765625 5.78125 0.015625 C6.75707031 0.00789063 7.73289062 0.00015625 8.73828125 -0.0078125 C9.67027344 -0.00523437 10.60226563 -0.00265625 11.5625 0 C12.41908203 0.00225586 13.27566406 0.00451172 14.15820312 0.00683594 C16.28125 0.265625 16.28125 0.265625 18.28125 2.265625 C18.63352814 5.01339448 18.7412456 6.59625209 17.1484375 8.9140625 C14.45057614 10.86690775 12.37899025 10.55910049 9.09375 10.453125 C8.00707031 10.42605469 6.92039062 10.39898437 5.80078125 10.37109375 C4.55361328 10.31888672 4.55361328 10.31888672 3.28125 10.265625 C3.28125 11.585625 3.28125 12.905625 3.28125 14.265625 C3.89613281 14.23082031 4.51101562 14.19601562 5.14453125 14.16015625 C6.35689453 14.11955078 6.35689453 14.11955078 7.59375 14.078125 C8.79451172 14.02591797 8.79451172 14.02591797 10.01953125 13.97265625 C12.28125 14.265625 12.28125 14.265625 14.0546875 15.6171875 C15.77016217 17.92269804 15.64053679 19.46318807 15.28125 22.265625 C13.28125 24.265625 13.28125 24.265625 10.8984375 24.4609375 C9.99351563 24.43773437 9.08859375 24.41453125 8.15625 24.390625 C6.79113281 24.36355469 6.79113281 24.36355469 5.3984375 24.3359375 C4.69976562 24.31273437 4.00109375 24.28953125 3.28125 24.265625 C3.30445312 25.03648437 3.32765625 25.80734375 3.3515625 26.6015625 C3.37863281 28.10589844 3.37863281 28.10589844 3.40625 29.640625 C3.42945312 30.63835937 3.45265625 31.63609375 3.4765625 32.6640625 C3.28125 35.265625 3.28125 35.265625 1.28125 37.265625 C-1.71875 37.578125 -1.71875 37.578125 -4.71875 37.265625 C-7.214534 33.521949 -6.97668785 31.51441988 -6.984375 27.04296875 C-6.98628845 26.3416835 -6.9882019 25.64039825 -6.99017334 24.91786194 C-6.99153267 23.43766928 -6.98785382 21.95746459 -6.97949219 20.47729492 C-6.96877255 18.20789956 -6.9794037 15.93929289 -6.9921875 13.66992188 C-6.99086617 12.23176908 -6.98830434 10.79361678 -6.984375 9.35546875 C-6.98211914 8.04441162 -6.97986328 6.73335449 -6.97753906 5.38256836 C-6.55601476 0.30558645 -4.592733 0.01209523 0 0 Z " fill="#785DFF" transform="translate(117.71875,273.734375)"/>
<path d="M0 0 C1.21429688 -0.01224609 2.42859375 -0.02449219 3.6796875 -0.03710938 C5.41605469 -0.04000977 5.41605469 -0.04000977 7.1875 -0.04296875 C8.78658203 -0.04913208 8.78658203 -0.04913208 10.41796875 -0.05541992 C13 0.1875 13 0.1875 15 2.1875 C15.35571424 4.96207104 15.36405327 6.56646796 13.9375 9 C11.04201787 10.77465034 8.32710516 10.26058092 5 10.1875 C5.01047363 10.8988208 5.02094727 11.6101416 5.03173828 12.34301758 C5.07328001 15.56197586 5.09932039 18.78087776 5.125 22 C5.14175781 23.11955078 5.15851563 24.23910156 5.17578125 25.39257812 C5.18222656 26.46572266 5.18867188 27.53886719 5.1953125 28.64453125 C5.20578613 29.63428955 5.21625977 30.62404785 5.22705078 31.64379883 C5 34.1875 5 34.1875 3 37.1875 C0 37.5 0 37.5 -3 37.1875 C-5 35.1875 -5 35.1875 -5.22705078 32.66552734 C-5.21134033 31.11019287 -5.21134033 31.11019287 -5.1953125 29.5234375 C-5.18886719 28.40195312 -5.18242187 27.28046875 -5.17578125 26.125 C-5.15902344 24.949375 -5.14226562 23.77375 -5.125 22.5625 C-5.11597656 21.37914062 -5.10695312 20.19578125 -5.09765625 18.9765625 C-5.07402812 16.04667477 -5.04108514 13.1171866 -5 10.1875 C-6.91619141 10.22230469 -6.91619141 10.22230469 -8.87109375 10.2578125 C-12.7421875 10.328125 -12.7421875 10.328125 -15.0625 9.0625 C-16.495401 6.196698 -15.84910305 4.19201848 -15 1.1875 C-10.65149046 -0.98675477 -4.77642634 0.00253526 0 0 Z " fill="#7A5FFF" transform="translate(217,273.8125)"/>
<path d="M0 0 C1.33359073 6.42548263 1.33359073 6.42548263 -0.125 8.9375 C-2.63647631 10.36066991 -4.15503228 10.42674516 -7 10 C-8.875 8.9375 -8.875 8.9375 -10 7 C-9.8125 3.375 -9.8125 3.375 -9 0 C-5.93109813 -1.53445094 -3.29905734 -0.54984289 0 0 Z " fill="#7B60FF" transform="translate(388,301)"/>
<path d="M0 0 C2.5 0.125 2.5 0.125 3.5 1.125 C3.54092937 3.45797433 3.54241723 5.79205225 3.5 8.125 C1.19 8.125 -1.12 8.125 -3.5 8.125 C-3.54241723 5.79205225 -3.54092937 3.45797433 -3.5 1.125 C-2.5 0.125 -2.5 0.125 0 0 Z " fill="#FBFAFF" transform="translate(293.5,283.875)"/>
<path d="M0 0 C2.5 0.125 2.5 0.125 3.5 1.125 C3.54092937 3.45797433 3.54241723 5.79205225 3.5 8.125 C1.19 8.125 -1.12 8.125 -3.5 8.125 C-3.54241723 5.79205225 -3.54092937 3.45797433 -3.5 1.125 C-2.5 0.125 -2.5 0.125 0 0 Z " fill="#FBFAFF" transform="translate(153.5,283.875)"/>
</svg>
