<svg viewBox="0 0 100 100" fill="none" xmlns="http://www.w3.org/2000/svg">
  <rect width="100" height="100" rx="22" fill="url(#bg-gradient)"/>
  
  <path d="M 18 36 L 28 36" stroke="white" stroke-width="2.5" stroke-linecap="round" />
  <path d="M 24 44 L 38 44" stroke="white" stroke-width="2.5" stroke-linecap="round" />
  <path d="M 16 52 L 26 52" stroke="white" stroke-width="2.5" stroke-linecap="round" />
  <path d="M 22 60 L 32 60" stroke="white" stroke-width="2.5" stroke-linecap="round" />
  <path d="M 28 68 L 38 68" stroke="white" stroke-width="2.5" stroke-linecap="round" />
  
  <path d="M 36 74 L 46 28 L 74 28 L 70 41 L 55 41 L 52 52 L 67 52 L 63 64 L 49 64 L 46 74 Z" 
        fill="white" stroke="white" stroke-width="1" stroke-linejoin="round" />
  
  <path d="M 75 20 Q 82 20 82 12 Q 82 20 89 20 Q 82 20 82 28 Q 82 20 75 20 Z" fill="white"/>

  <defs>
    <linearGradient id="bg-gradient" x1="0" y1="0" x2="100" y2="100" gradientUnits="userSpaceOnUse">
      <stop stop-color="#6C5CE7"/>
      <stop offset="1" stop-color="#4A90E2"/>
    </linearGradient>
  </defs>
</svg>
